<svg xmlns:xlink="http://www.w3.org/1999/xlink" width="315" xmlns="http://www.w3.org/2000/svg" height="317" id="screenshot-f842f9af-8c6e-80e7-8001-eff8449181d1" viewBox="0 0 315 317" style="-webkit-print-color-adjust: exact;" fill="none" version="1.1"><g id="shape-f842f9af-8c6e-80e7-8001-eff8449181d1" rx="0" ry="0"><g id="shape-f842f9af-8c6e-80e7-8001-eff828773496" rx="0" ry="0"><g id="shape-f842f9af-8c6e-80e7-8001-eff828773497"><g id="fills-f842f9af-8c6e-80e7-8001-eff828773497"><ellipse rx="157.5" ry="158.5" cx="157.5" cy="158.5" transform="matrix(1,0,0,1,0.000002,-0.000002)" style="fill: rgb(37, 99, 235); fill-opacity: 1;"/></g></g></g><g id="shape-f842f9af-8c6e-80e7-8001-eff8325d1f26" rx="0" ry="0" style="fill: rgb(0, 0, 0);"><g id="shape-f842f9af-8c6e-80e7-8001-eff8325d1f27" rx="0" ry="0" style="fill: rgb(0, 0, 0);"><g id="shape-f842f9af-8c6e-80e7-8001-eff8325d1f28"><g id="fills-f842f9af-8c6e-80e7-8001-eff8325d1f28"><path fill="#09244BFF" fill-rule="evenodd" stroke="none" rx="0" ry="0" d="M133.783,238.547C127.353,243.255,117.178,236.917,119.219,229.475L133.559,177.184L83.541,166.476C76.115,164.886,73.228,156.332,78.753,152.288L180.536,77.772C186.967,73.064,197.142,79.402,195.101,86.844L180.76,139.135L230.779,149.843C238.204,151.432,241.091,159.987,235.567,164.031L133.783,238.547ZZ" style="fill: rgb(255, 255, 255); fill-opacity: 1;"/></g></g></g></g></g></svg>